# xmcd CD database file
#
# Track frame offsets:
#	150
#	18085
#	35356
#	49193
#	65924
#	85966
#	97513
#	114983
#	133285
#	155326
#
# Disc length: 2355 seconds
#
# Revision: 2
# Processed by: cddbd v1.5.2PL0 Copyright (c) Steve Scherf et al.
# Submitted via: CDex 1.51
#
DISCID=7809310a
DTITLE=小島 麻由美 - スウィンギン・キャラバン
DYEAR=2006
DGENRE=JPop
TTITLE0=ラストショット！
TTITLE1=チョコレート
TTITLE2=chakachaka
TTITLE3=蝶々
TTITLE4=トルココーヒー
TTITLE5=モッキンバード
TTITLE6=赤い帽子
TTITLE7=みずうみ
TTITLE8=サマータイム
TTITLE9=星の王子さま
EXTD=YEAR: 2006
EXTT0=
EXTT1=
EXTT2=
EXTT3=
EXTT4=
EXTT5=
EXTT6=
EXTT7=
EXTT8=
EXTT9=
PLAYORDER=
